<?xml version="1.0" standalone="no"?>
<!DOCTYPE svg PUBLIC "-//W3C//DTD SVG 20010904//EN"
 "http://www.w3.org/TR/2001/REC-SVG-20010904/DTD/svg10.dtd">
<svg version="1.0" xmlns="http://www.w3.org/2000/svg"
 width="512.000000pt" height="512.000000pt" viewBox="0 0 512.000000 512.000000"
 preserveAspectRatio="xMidYMid meet">
<metadata>
Created by potrace 1.14, written by Peter Selinger 2001-2017
</metadata>
<g transform="translate(0.000000,512.000000) scale(0.100000,-0.100000)"
fill="#000000" stroke="none">
<path d="M2290 4474 c-628 -91 -1175 -485 -1458 -1050 -106 -213 -164 -414
-196 -684 -5 -37 -13 -50 -43 -75 -76 -60 -281 -272 -340 -352 -135 -182 -195
-330 -197 -483 -2 -217 107 -370 344 -486 149 -72 408 -122 655 -125 l110 -1
60 -55 c166 -153 301 -246 490 -338 197 -96 412 -161 601 -182 89 -10 399 -10
488 0 318 35 654 175 939 390 86 64 241 214 302 292 22 28 43 52 46 55 4 3 36
49 73 103 158 235 284 569 311 822 12 114 14 118 63 160 100 85 263 254 331
345 81 108 152 244 178 340 25 93 22 228 -6 305 -99 276 -451 437 -968 444
l-117 2 -80 73 c-313 283 -653 444 -1060 501 -134 18 -393 18 -526 -1z m2118
-1220 c27 -8 28 -21 4 -52 l-18 -24 -16 41 c-17 43 -14 46 30 35z m-3653
-1392 c-7 -7 -65 10 -65 19 0 5 8 22 17 36 l17 26 18 -39 c9 -21 15 -40 13
-42z"/>
</g>
</svg>
